<svg width="15" height="19" viewBox="0 0 15 19" fill="none" xmlns="http://www.w3.org/2000/svg">
<path fill-rule="evenodd" clip-rule="evenodd" d="M12.75 0H2.25C1.42157 0 0.75 0.671573 0.75 1.5V18C0.750135 18.2726 0.898147 18.5236 1.13659 18.6557C1.37503 18.7878 1.66636 18.7801 1.8975 18.6356L7.5 15.1341L13.1034 18.6356C13.3345 18.7796 13.6255 18.787 13.8636 18.655C14.1018 18.523 14.2497 18.2723 14.25 18V1.5C14.25 0.671573 13.5784 0 12.75 0ZM7.89656 13.6144C7.65336 13.4624 7.34477 13.4624 7.10156 13.6144L2.25 16.6472V13.9153L7.5 10.6341L12.75 13.9153V16.6472L7.89656 13.6144Z" fill="white"/>
</svg>
